# xmcd
# Track frame offsets:
# 150
# 19306
# 36135
# 54862
# 71133
# 88276
# 108502
# 123289
# 136732
# 155302
# 172230
# 190128
# 207920
# 227444
#
# Disc length: 3262 seconds
# Revision: 0
# Processed by: cddbd v1.5.2PL0 Copyright (c) Steve Scherf et al.
# Submitted via: VisiTrax 2.10.0.248 - For more info visit www.synapsa.com
#
DISCID=bd0cbc0e
DTITLE=Various Artist - 360 Degrees P1.5 Promo Radio #53 9-02
DYEAR=2002
DGENRE=Country
TTITLE0=Jack Ingram - One Thing
TTITLE1=Little Big Town - Everything Changes
TTITLE2=Montgomery Gentry - My Town
TTITLE3=Rascal Flatts - These Days
TTITLE4=Adam Gregory - The World Could Use  A Cowboy
TTITLE5=Doc Walker - Rocket Girl
TTITLE6=Eric Heatherly - The Last Man Commited
TTITLE7=Kevin Denney - Cadillac Tears
TTITLE8=Alan Jackson - Work in Progress
TTITLE9=Neal McCoy - What If
TTITLE10=Rebecca Lynn Howard - Forgive
TTITLE11=Shedaisy - Mine All Mine
TTITLE12=Willie Nelson - Maria (shut up and kiss me)
TTITLE13=Ty Herndon - A Few Short Years
EXTD=
EXTT0=East Coast
EXTT1=2 Step
EXTT2=2 Step
EXTT3=2 Step
EXTT4=Cha Cha
EXTT5=Ballad
EXTT6=Ballad
EXTT7=East/West Coast Swing
EXTT8=East/West Coast Swing
EXTT9=2 Step
EXTT10=Ballad
EXTT11=Ballad
EXTT12=2 Step
EXTT13=East Coast
PLAYORDER=
